<svg class="animated" id="freepik_stories-firmware" xmlns="http://www.w3.org/2000/svg" viewBox="0 0 750 500" version="1.1" xmlns:xlink="http://www.w3.org/1999/xlink" xmlns:svgjs="http://svgjs.com/svgjs"><style>svg#freepik_stories-firmware:not(.animated) .animable {opacity: 0;}svg#freepik_stories-firmware.animated #freepik--Device--inject-62 {animation: 2.8s 1 forwards ease-in lightSpeedLeft;animation-delay: 0s;}svg#freepik_stories-firmware.animated #freepik--Character--inject-62 {animation: 2.7s 1 forwards cubic-bezier(.36,-0.01,.5,1.38) zoomOut,1.5s Infinite  linear floating;animation-delay: 0s,2.7s;}            @keyframes lightSpeedLeft {              from {                transform: translate3d(-50%, 0, 0) skewX(20deg);                opacity: 0;              }              60% {                transform: skewX(-10deg);                opacity: 1;              }              80% {                transform: skewX(2deg);              }              to {                opacity: 1;                transform: translate3d(0, 0, 0);              }            }                    @keyframes zoomOut {                0% {                    opacity: 0;                    transform: scale(1.5);                }                100% {                    opacity: 1;                    transform: scale(1);                }            }                    @keyframes floating {                0% {                    opacity: 1;                    transform: translateY(0px);                }                50% {                    transform: translateY(-10px);                }                100% {                    opacity: 1;                    transform: translateY(0px);                }            }        </style><g id="freepik--Floor--inject-62" class="animable" style="transform-origin: 375px 441.605px;"><polygon points="50.72 441.6 131.79 441.36 212.86 441.27 375 441.11 537.14 441.27 618.21 441.36 699.28 441.6 618.21 441.85 537.14 441.94 375 442.1 212.86 441.94 131.79 441.85 50.72 441.6" style="fill: rgb(38, 50, 56); transform-origin: 375px 441.605px;" id="elr3hamcoore" class="animable"></polygon></g><g id="freepik--Device--inject-62" class="animable animator-active" style="transform-origin: 375px 261.84px;"><rect x="68.63" y="419.29" width="612.74" height="22.32" style="fill: rgb(199, 199, 199); transform-origin: 375px 430.45px;" id="elg20pjkhw9bb" class="animable"></rect><rect x="122.94" y="82.07" width="504.11" height="337.22" style="fill: rgb(219, 219, 219); transform-origin: 374.995px 250.68px;" id="el3lam4lc6vc5" class="animable"></rect><rect x="126.61" y="86.18" width="496.79" height="328.99" style="fill: rgb(38, 50, 56); transform-origin: 375.005px 250.675px;" id="elz1v4f1oo3aj" class="animable"></rect><rect x="148.6" y="107.33" width="452.79" height="286.69" style="fill: rgb(255, 255, 255); transform-origin: 374.995px 250.675px;" id="elya7yie1g8v7" class="animable"></rect><rect x="148.6" y="107.33" width="452.79" height="11.03" style="fill: rgb(69, 90, 100); transform-origin: 374.995px 112.845px;" id="el1be4h754zlf" class="animable"></rect><path d="M159,112.85a2.09,2.09,0,1,1-2.09-2.09A2.09,2.09,0,0,1,159,112.85Z" style="fill: rgb(199, 199, 199); transform-origin: 156.91px 112.85px;" id="elyz0xyf09ezq" class="animable"></path><path d="M167.51,112.85a2.09,2.09,0,1,1-2.08-2.09A2.08,2.08,0,0,1,167.51,112.85Z" style="fill: rgb(255, 255, 255); transform-origin: 165.42px 112.85px;" id="elb5tbaitmibs" class="animable"></path><path d="M176,112.85a2.09,2.09,0,1,1-2.09-2.09A2.09,2.09,0,0,1,176,112.85Z" style="fill: rgb(39, 255, 79); transform-origin: 173.91px 112.85px;" id="elg5l92x1zgj" class="animable"></path><rect x="329.98" y="213.03" width="90.04" height="90.04" style="fill: rgb(39, 255, 79); transform-origin: 375px 258.05px;" id="el555xohtwdfd" class="animable"></rect><g id="elbr59kzyq6u4"><rect x="408.92" y="198.93" width="3.14" height="11.33" style="fill: rgb(199, 199, 199); transform-origin: 410.49px 204.595px; transform: rotate(180deg);" class="animable"></rect></g><g id="el59cpdifil6d"><rect x="400.05" y="198.93" width="3.14" height="11.33" style="fill: rgb(199, 199, 199); transform-origin: 401.62px 204.595px; transform: rotate(180deg);" class="animable"></rect></g><g id="elfiy7932f3m8"><rect x="391.18" y="198.93" width="3.14" height="11.33" style="fill: rgb(199, 199, 199); transform-origin: 392.75px 204.595px; transform: rotate(180deg);" class="animable"></rect></g><g id="eld3qhd763ywk"><rect x="382.3" y="198.93" width="3.14" height="11.33" style="fill: rgb(199, 199, 199); transform-origin: 383.87px 204.595px; transform: rotate(180deg);" class="animable"></rect></g><g id="el1wew1ubgx3x"><rect x="373.43" y="198.93" width="3.14" height="11.33" style="fill: rgb(199, 199, 199); transform-origin: 375px 204.595px; transform: rotate(180deg);" class="animable"></rect></g><g id="eljsb2rsyvzxm"><rect x="364.56" y="198.93" width="3.14" height="11.33" style="fill: rgb(199, 199, 199); transform-origin: 366.13px 204.595px; transform: rotate(180deg);" class="animable"></rect></g><g id="elmigp3qm9wp"><rect x="355.68" y="198.93" width="3.14" height="11.33" style="fill: rgb(199, 199, 199); transform-origin: 357.25px 204.595px; transform: rotate(180deg);" class="animable"></rect></g><g id="elxjcnde46s5e"><rect x="346.81" y="198.93" width="3.14" height="11.33" style="fill: rgb(199, 199, 199); transform-origin: 348.38px 204.595px; transform: rotate(180deg);" class="animable"></rect></g><g id="el0o4s4tmkotp"><rect x="337.94" y="198.93" width="3.14" height="11.33" style="fill: rgb(199, 199, 199); transform-origin: 339.51px 204.595px; transform: rotate(180deg);" class="animable"></rect></g><g id="elrfabdl3xmu"><rect x="336.88" y="208.77" width="5.25" height="4.27" style="fill: rgb(39, 255, 79); transform-origin: 339.505px 210.905px; transform: rotate(180deg);" class="animable"></rect></g><g id="elj42bevosql"><rect x="336.88" y="208.77" width="5.25" height="4.27" style="opacity: 0.1; transform-origin: 339.505px 210.905px; transform: rotate(180deg);" class="animable"></rect></g><g id="elv47b5hueqgm"><rect x="345.76" y="208.77" width="5.25" height="4.27" style="fill: rgb(39, 255, 79); transform-origin: 348.385px 210.905px; transform: rotate(180deg);" class="animable"></rect></g><g id="el9bz7bsy3hto"><rect x="345.76" y="208.77" width="5.25" height="4.27" style="opacity: 0.1; transform-origin: 348.385px 210.905px; transform: rotate(180deg);" class="animable"></rect></g><g id="elnilej9jlgoi"><rect x="354.63" y="208.77" width="5.25" height="4.27" style="fill: rgb(39, 255, 79); transform-origin: 357.255px 210.905px; transform: rotate(180deg);" class="animable"></rect></g><g id="eltar67fsd99c"><rect x="354.63" y="208.77" width="5.25" height="4.27" style="opacity: 0.1; transform-origin: 357.255px 210.905px; transform: rotate(180deg);" class="animable"></rect></g><g id="elpdouip2yj5h"><rect x="363.5" y="208.77" width="5.25" height="4.27" style="fill: rgb(39, 255, 79); transform-origin: 366.125px 210.905px; transform: rotate(180deg);" class="animable"></rect></g><g id="elkvvgf8k1nh"><rect x="363.5" y="208.77" width="5.25" height="4.27" style="opacity: 0.1; transform-origin: 366.125px 210.905px; transform: rotate(180deg);" class="animable"></rect></g><g id="el9c4i784q9yv"><rect x="372.38" y="208.77" width="5.25" height="4.27" style="fill: rgb(39, 255, 79); transform-origin: 375.005px 210.905px; transform: rotate(180deg);" class="animable"></rect></g><g id="elda2gwvfkr0m"><rect x="372.38" y="208.77" width="5.25" height="4.27" style="opacity: 0.1; transform-origin: 375.005px 210.905px; transform: rotate(180deg);" class="animable"></rect></g><g id="el73o85sdy4e5"><rect x="381.25" y="208.77" width="5.25" height="4.27" style="fill: rgb(39, 255, 79); transform-origin: 383.875px 210.905px; transform: rotate(180deg);" class="animable"></rect></g><g id="elvn10nqlm7lc"><rect x="381.25" y="208.77" width="5.25" height="4.27" style="opacity: 0.1; transform-origin: 383.875px 210.905px; transform: rotate(180deg);" class="animable"></rect></g><g id="el7p8nffmgc5"><rect x="390.12" y="208.77" width="5.25" height="4.27" style="fill: rgb(39, 255, 79); transform-origin: 392.745px 210.905px; transform: rotate(180deg);" class="animable"></rect></g><g id="elxwoi4tv2bt"><rect x="390.12" y="208.77" width="5.25" height="4.27" style="opacity: 0.1; transform-origin: 392.745px 210.905px; transform: rotate(180deg);" class="animable"></rect></g><g id="eldjj4rp973in"><rect x="399" y="208.77" width="5.25" height="4.27" style="fill: rgb(39, 255, 79); transform-origin: 401.625px 210.905px; transform: rotate(180deg);" class="animable"></rect></g><g id="el4g5g7jj6zse"><rect x="399" y="208.77" width="5.25" height="4.27" style="opacity: 0.1; transform-origin: 401.625px 210.905px; transform: rotate(180deg);" class="animable"></rect></g><g id="elhmrhgc3hkg"><rect x="407.87" y="208.77" width="5.25" height="4.27" style="fill: rgb(39, 255, 79); transform-origin: 410.495px 210.905px; transform: rotate(180deg);" class="animable"></rect></g><g id="elmr4l3e0i3v"><rect x="407.87" y="208.77" width="5.25" height="4.27" style="opacity: 0.1; transform-origin: 410.495px 210.905px; transform: rotate(180deg);" class="animable"></rect></g><g id="el9hmgvx00hn"><rect x="426.89" y="287.88" width="3.14" height="11.33" style="fill: rgb(199, 199, 199); transform-origin: 428.46px 293.545px; transform: rotate(-90deg);" class="animable"></rect></g><g id="elpwh8audg9pr"><rect x="426.89" y="279.01" width="3.14" height="11.33" style="fill: rgb(199, 199, 199); transform-origin: 428.46px 284.675px; transform: rotate(-90deg);" class="animable"></rect></g><g id="elrotuxyy72nt"><rect x="426.89" y="270.13" width="3.14" height="11.33" style="fill: rgb(199, 199, 199); transform-origin: 428.46px 275.795px; transform: rotate(-90deg);" class="animable"></rect></g><g id="elk5yyk9lzqme"><rect x="426.89" y="261.26" width="3.14" height="11.33" style="fill: rgb(199, 199, 199); transform-origin: 428.46px 266.925px; transform: rotate(-90deg);" class="animable"></rect></g><g id="elrytit332gs9"><rect x="426.89" y="252.39" width="3.14" height="11.33" style="fill: rgb(199, 199, 199); transform-origin: 428.46px 258.055px; transform: rotate(-90deg);" class="animable"></rect></g><g id="eltxn9ck37d7c"><rect x="426.89" y="243.51" width="3.14" height="11.33" style="fill: rgb(199, 199, 199); transform-origin: 428.46px 249.175px; transform: rotate(-90deg);" class="animable"></rect></g><g id="el6hv5p0ev26g"><rect x="426.89" y="234.64" width="3.14" height="11.33" style="fill: rgb(199, 199, 199); transform-origin: 428.46px 240.305px; transform: rotate(-90deg);" class="animable"></rect></g><g id="ela413v0uhm8"><rect x="426.89" y="225.77" width="3.14" height="11.33" style="fill: rgb(199, 199, 199); transform-origin: 428.46px 231.435px; transform: rotate(-90deg);" class="animable"></rect></g><g id="el07qtlp4b5eev"><rect x="426.89" y="216.89" width="3.14" height="11.33" style="fill: rgb(199, 199, 199); transform-origin: 428.46px 222.555px; transform: rotate(-90deg);" class="animable"></rect></g><g id="elyloulju9jl"><rect x="419.53" y="220.42" width="5.25" height="4.27" style="fill: rgb(39, 255, 79); transform-origin: 422.155px 222.555px; transform: rotate(-90deg);" class="animable"></rect></g><g id="elkgj0ongrghe"><rect x="419.53" y="220.42" width="5.25" height="4.27" style="opacity: 0.1; transform-origin: 422.155px 222.555px; transform: rotate(-90deg);" class="animable"></rect></g><g id="elu7r0xno1x89"><rect x="419.53" y="229.3" width="5.25" height="4.27" style="fill: rgb(39, 255, 79); transform-origin: 422.155px 231.435px; transform: rotate(-90deg);" class="animable"></rect></g><g id="elmuy5b0ykws8"><rect x="419.53" y="229.3" width="5.25" height="4.27" style="opacity: 0.1; transform-origin: 422.155px 231.435px; transform: rotate(-90deg);" class="animable"></rect></g><g id="el87u037ly52s"><rect x="419.53" y="238.17" width="5.25" height="4.27" style="fill: rgb(39, 255, 79); transform-origin: 422.155px 240.305px; transform: rotate(-90deg);" class="animable"></rect></g><g id="el3odt7llnlvc"><rect x="419.53" y="238.17" width="5.25" height="4.27" style="opacity: 0.1; transform-origin: 422.155px 240.305px; transform: rotate(-90deg);" class="animable"></rect></g><g id="elbdvltgjd5g"><rect x="419.53" y="247.05" width="5.25" height="4.27" style="fill: rgb(39, 255, 79); transform-origin: 422.155px 249.185px; transform: rotate(-90deg);" class="animable"></rect></g><g id="el12uygoavvwcn"><rect x="419.53" y="247.05" width="5.25" height="4.27" style="opacity: 0.1; transform-origin: 422.155px 249.185px; transform: rotate(-90deg);" class="animable"></rect></g><g id="elxf4psopx5b"><rect x="419.53" y="255.92" width="5.25" height="4.27" style="fill: rgb(39, 255, 79); transform-origin: 422.155px 258.055px; transform: rotate(-90deg);" class="animable"></rect></g><g id="el0bcszajamen5"><rect x="419.53" y="255.92" width="5.25" height="4.27" style="opacity: 0.1; transform-origin: 422.155px 258.055px; transform: rotate(-90deg);" class="animable"></rect></g><g id="el1or1s2n9vdo"><rect x="419.53" y="264.79" width="5.25" height="4.27" style="fill: rgb(39, 255, 79); transform-origin: 422.155px 266.925px; transform: rotate(-90deg);" class="animable"></rect></g><g id="el5uuwukdge7"><rect x="419.53" y="264.79" width="5.25" height="4.27" style="opacity: 0.1; transform-origin: 422.155px 266.925px; transform: rotate(-90deg);" class="animable"></rect></g><g id="elqbh1h0eyqmk"><rect x="419.53" y="273.67" width="5.25" height="4.27" style="fill: rgb(39, 255, 79); transform-origin: 422.155px 275.805px; transform: rotate(-90deg);" class="animable"></rect></g><g id="elbhag9qs1m4a"><rect x="419.53" y="273.67" width="5.25" height="4.27" style="opacity: 0.1; transform-origin: 422.155px 275.805px; transform: rotate(-90deg);" class="animable"></rect></g><g id="elu0yqbqmwmlb"><rect x="419.53" y="282.54" width="5.25" height="4.27" style="fill: rgb(39, 255, 79); transform-origin: 422.155px 284.675px; transform: rotate(-90deg);" class="animable"></rect></g><g id="elha3h4v9zudu"><rect x="419.53" y="282.54" width="5.25" height="4.27" style="opacity: 0.1; transform-origin: 422.155px 284.675px; transform: rotate(-90deg);" class="animable"></rect></g><g id="eld0x482bjuy5"><rect x="419.53" y="291.41" width="5.25" height="4.27" style="fill: rgb(39, 255, 79); transform-origin: 422.155px 293.545px; transform: rotate(-90deg);" class="animable"></rect></g><g id="elhafl3m105u6"><rect x="419.53" y="291.41" width="5.25" height="4.27" style="opacity: 0.1; transform-origin: 422.155px 293.545px; transform: rotate(-90deg);" class="animable"></rect></g><rect x="337.94" y="305.84" width="3.14" height="11.33" style="fill: rgb(199, 199, 199); transform-origin: 339.51px 311.505px;" id="el1hgakgfgpcw" class="animable"></rect><rect x="346.81" y="305.84" width="3.14" height="11.33" style="fill: rgb(199, 199, 199); transform-origin: 348.38px 311.505px;" id="ellerifghzxml" class="animable"></rect><rect x="355.68" y="305.84" width="3.14" height="11.33" style="fill: rgb(199, 199, 199); transform-origin: 357.25px 311.505px;" id="elcmkh0jcc999" class="animable"></rect><rect x="364.56" y="305.84" width="3.14" height="11.33" style="fill: rgb(199, 199, 199); transform-origin: 366.13px 311.505px;" id="elo0fgufazsps" class="animable"></rect><rect x="373.43" y="305.84" width="3.14" height="11.33" style="fill: rgb(199, 199, 199); transform-origin: 375px 311.505px;" id="elnxvkhzkuf7j" class="animable"></rect><rect x="382.3" y="305.84" width="3.14" height="11.33" style="fill: rgb(199, 199, 199); transform-origin: 383.87px 311.505px;" id="elr44xspo9rs" class="animable"></rect><rect x="391.18" y="305.84" width="3.14" height="11.33" style="fill: rgb(199, 199, 199); transform-origin: 392.75px 311.505px;" id="elcrhzau5pt7f" class="animable"></rect><rect x="400.05" y="305.84" width="3.14" height="11.33" style="fill: rgb(199, 199, 199); transform-origin: 401.62px 311.505px;" id="el20cauycaz2t" class="animable"></rect><rect x="408.92" y="305.84" width="3.14" height="11.33" style="fill: rgb(199, 199, 199); transform-origin: 410.49px 311.505px;" id="elfwl9lnjolow" class="animable"></rect><rect x="407.87" y="303.07" width="5.25" height="4.27" style="fill: rgb(39, 255, 79); transform-origin: 410.495px 305.205px;" id="elsdp56rxcwbi" class="animable"></rect><g id="elvxfg1ks5sxc"><rect x="407.87" y="303.07" width="5.25" height="4.27" style="opacity: 0.1; transform-origin: 410.495px 305.205px;" class="animable"></rect></g><rect x="399" y="303.07" width="5.25" height="4.27" style="fill: rgb(39, 255, 79); transform-origin: 401.625px 305.205px;" id="elm6whjxmm47e" class="animable"></rect><g id="eljf50ccbufb9"><rect x="399" y="303.07" width="5.25" height="4.27" style="opacity: 0.1; transform-origin: 401.625px 305.205px;" class="animable"></rect></g><rect x="390.12" y="303.07" width="5.25" height="4.27" style="fill: rgb(39, 255, 79); transform-origin: 392.745px 305.205px;" id="elfh7oe0wieci" class="animable"></rect><g id="el8l6jpjk56wg"><rect x="390.12" y="303.07" width="5.25" height="4.27" style="opacity: 0.1; transform-origin: 392.745px 305.205px;" class="animable"></rect></g><rect x="381.25" y="303.07" width="5.25" height="4.27" style="fill: rgb(39, 255, 79); transform-origin: 383.875px 305.205px;" id="eluwlitm9i7lb" class="animable"></rect><g id="elmxobyv41nw9"><rect x="381.25" y="303.07" width="5.25" height="4.27" style="opacity: 0.1; transform-origin: 383.875px 305.205px;" class="animable"></rect></g><rect x="372.38" y="303.07" width="5.25" height="4.27" style="fill: rgb(39, 255, 79); transform-origin: 375.005px 305.205px;" id="eldsyo1nlva" class="animable"></rect><g id="eleka1vtsr8xj"><rect x="372.38" y="303.07" width="5.25" height="4.27" style="opacity: 0.1; transform-origin: 375.005px 305.205px;" class="animable"></rect></g><rect x="363.5" y="303.07" width="5.25" height="4.27" style="fill: rgb(39, 255, 79); transform-origin: 366.125px 305.205px;" id="elu867kssjbf" class="animable"></rect><g id="elp4ijrb5yop"><rect x="363.5" y="303.07" width="5.25" height="4.27" style="opacity: 0.1; transform-origin: 366.125px 305.205px;" class="animable"></rect></g><rect x="354.63" y="303.07" width="5.25" height="4.27" style="fill: rgb(39, 255, 79); transform-origin: 357.255px 305.205px;" id="eln7q35iwk9t" class="animable"></rect><g id="el03mwxly62kzy"><rect x="354.63" y="303.07" width="5.25" height="4.27" style="opacity: 0.1; transform-origin: 357.255px 305.205px;" class="animable"></rect></g><rect x="345.76" y="303.07" width="5.25" height="4.27" style="fill: rgb(39, 255, 79); transform-origin: 348.385px 305.205px;" id="elrkcr88jcj5s" class="animable"></rect><g id="elqhgie41l17"><rect x="345.76" y="303.07" width="5.25" height="4.27" style="opacity: 0.1; transform-origin: 348.385px 305.205px;" class="animable"></rect></g><rect x="336.88" y="303.07" width="5.25" height="4.27" style="fill: rgb(39, 255, 79); transform-origin: 339.505px 305.205px;" id="elf5modly32fh" class="animable"></rect><g id="el77q6mnzo1pn"><rect x="336.88" y="303.07" width="5.25" height="4.27" style="opacity: 0.1; transform-origin: 339.505px 305.205px;" class="animable"></rect></g><g id="elunrsx0uskr"><rect x="319.97" y="216.83" width="3.14" height="11.33" style="fill: rgb(199, 199, 199); transform-origin: 321.54px 222.495px; transform: rotate(90deg);" class="animable"></rect></g><g id="el5ra2c5sk0jp"><rect x="319.97" y="225.71" width="3.14" height="11.33" style="fill: rgb(199, 199, 199); transform-origin: 321.54px 231.375px; transform: rotate(90deg);" class="animable"></rect></g><g id="elb7sxzzhrkt4"><rect x="319.97" y="234.58" width="3.14" height="11.33" style="fill: rgb(199, 199, 199); transform-origin: 321.54px 240.245px; transform: rotate(90deg);" class="animable"></rect></g><g id="elcyqrp57c3q"><rect x="319.97" y="243.45" width="3.14" height="11.33" style="fill: rgb(199, 199, 199); transform-origin: 321.54px 249.115px; transform: rotate(90deg);" class="animable"></rect></g><g id="el7q7rpdjbl56"><rect x="319.97" y="252.33" width="3.14" height="11.33" style="fill: rgb(199, 199, 199); transform-origin: 321.54px 257.995px; transform: rotate(90deg);" class="animable"></rect></g><g id="elx5jyr4geo4"><rect x="319.97" y="261.2" width="3.14" height="11.33" style="fill: rgb(199, 199, 199); transform-origin: 321.54px 266.865px; transform: rotate(90deg);" class="animable"></rect></g><g id="elnuosnsjp5oi"><rect x="319.97" y="270.08" width="3.14" height="11.33" style="fill: rgb(199, 199, 199); transform-origin: 321.54px 275.745px; transform: rotate(90deg);" class="animable"></rect></g><g id="el248dw4dju6q"><rect x="319.97" y="278.95" width="3.14" height="11.33" style="fill: rgb(199, 199, 199); transform-origin: 321.54px 284.615px; transform: rotate(90deg);" class="animable"></rect></g><g id="elikhl6brx2x"><rect x="319.97" y="287.82" width="3.14" height="11.33" style="fill: rgb(199, 199, 199); transform-origin: 321.54px 293.485px; transform: rotate(90deg);" class="animable"></rect></g><g id="elaw2tv87ytag"><rect x="325.22" y="291.35" width="5.25" height="4.27" style="fill: rgb(39, 255, 79); transform-origin: 327.845px 293.485px; transform: rotate(90deg);" class="animable"></rect></g><g id="elhadw3kt5sdm"><rect x="325.22" y="291.35" width="5.25" height="4.27" style="opacity: 0.1; transform-origin: 327.845px 293.485px; transform: rotate(90deg);" class="animable"></rect></g><g id="elnmu4f0ajajc"><rect x="325.22" y="282.48" width="5.25" height="4.27" style="fill: rgb(39, 255, 79); transform-origin: 327.845px 284.615px; transform: rotate(90deg);" class="animable"></rect></g><g id="elhs470enq9q8"><rect x="325.22" y="282.48" width="5.25" height="4.27" style="opacity: 0.1; transform-origin: 327.845px 284.615px; transform: rotate(90deg);" class="animable"></rect></g><g id="elzwcsayibfnm"><rect x="325.22" y="273.61" width="5.25" height="4.27" style="fill: rgb(39, 255, 79); transform-origin: 327.845px 275.745px; transform: rotate(90deg);" class="animable"></rect></g><g id="el220upqcrtzt"><rect x="325.22" y="273.61" width="5.25" height="4.27" style="opacity: 0.1; transform-origin: 327.845px 275.745px; transform: rotate(90deg);" class="animable"></rect></g><g id="el8impdd0zbic"><rect x="325.22" y="264.73" width="5.25" height="4.27" style="fill: rgb(39, 255, 79); transform-origin: 327.845px 266.865px; transform: rotate(90deg);" class="animable"></rect></g><g id="elqkwc8jfg1v"><rect x="325.22" y="264.73" width="5.25" height="4.27" style="opacity: 0.1; transform-origin: 327.845px 266.865px; transform: rotate(90deg);" class="animable"></rect></g><g id="elplotpbg6ce"><rect x="325.22" y="255.86" width="5.25" height="4.27" style="fill: rgb(39, 255, 79); transform-origin: 327.845px 257.995px; transform: rotate(90deg);" class="animable"></rect></g><g id="eli2fwh7l9vq"><rect x="325.22" y="255.86" width="5.25" height="4.27" style="opacity: 0.1; transform-origin: 327.845px 257.995px; transform: rotate(90deg);" class="animable"></rect></g><g id="el13suf0ymb71m"><rect x="325.22" y="246.99" width="5.25" height="4.27" style="fill: rgb(39, 255, 79); transform-origin: 327.845px 249.125px; transform: rotate(90deg);" class="animable"></rect></g><g id="ele2xfdaysiqc"><rect x="325.22" y="246.99" width="5.25" height="4.27" style="opacity: 0.1; transform-origin: 327.845px 249.125px; transform: rotate(90deg);" class="animable"></rect></g><g id="elacjj6t7jjyp"><rect x="325.22" y="238.11" width="5.25" height="4.27" style="fill: rgb(39, 255, 79); transform-origin: 327.845px 240.245px; transform: rotate(90deg);" class="animable"></rect></g><g id="eleise17eukbl"><rect x="325.22" y="238.11" width="5.25" height="4.27" style="opacity: 0.1; transform-origin: 327.845px 240.245px; transform: rotate(90deg);" class="animable"></rect></g><g id="el01k3ppv7chsx"><rect x="325.22" y="229.24" width="5.25" height="4.27" style="fill: rgb(39, 255, 79); transform-origin: 327.845px 231.375px; transform: rotate(90deg);" class="animable"></rect></g><g id="eliz5j5tix92"><rect x="325.22" y="229.24" width="5.25" height="4.27" style="opacity: 0.1; transform-origin: 327.845px 231.375px; transform: rotate(90deg);" class="animable"></rect></g><g id="el116tgn4m9d4p"><rect x="325.22" y="220.37" width="5.25" height="4.27" style="fill: rgb(39, 255, 79); transform-origin: 327.845px 222.505px; transform: rotate(90deg);" class="animable"></rect></g><g id="elwj5qearzzqg"><rect x="325.22" y="220.37" width="5.25" height="4.27" style="opacity: 0.1; transform-origin: 327.845px 222.505px; transform: rotate(90deg);" class="animable"></rect></g><g id="elji3rki4gbo"><path d="M339.7,220.47a3.14,3.14,0,1,1-3.14-3.14A3.15,3.15,0,0,1,339.7,220.47Z" style="opacity: 0.1; transform-origin: 336.56px 220.47px;" class="animable"></path></g><polygon points="399.26 280.08 350.74 280.08 350.74 265.14 353.88 265.14 353.88 276.94 396.12 276.94 396.12 265.9 399.26 265.9 399.26 280.08" style="fill: rgb(255, 255, 255); transform-origin: 375px 272.61px;" id="elg4d8rj1r13k" class="animable"></polygon><g id="eli5567oc7cab"><rect x="367.55" y="236.02" width="14.91" height="19.18" style="fill: rgb(255, 255, 255); transform-origin: 375.005px 245.61px; transform: rotate(180deg);" class="animable"></rect></g><polygon points="390.07 255.2 359.93 255.2 375 270.78 390.07 255.2" style="fill: rgb(255, 255, 255); transform-origin: 375px 262.99px;" id="elcwsixjluitn" class="animable"></polygon><polygon points="478.5 258.43 434.12 258.43 434.12 257.68 478.25 257.68 519.12 227.74 555.18 227.74 555.18 228.49 519.36 228.49 478.5 258.43" style="fill: rgb(219, 219, 219); transform-origin: 494.65px 243.085px;" id="eljb0edrz788s" class="animable"></polygon><path d="M557.79,231.15a3,3,0,1,1,3-3A3,3,0,0,1,557.79,231.15Zm0-5.33a2.29,2.29,0,1,0,2.29,2.29A2.29,2.29,0,0,0,557.79,225.82Z" style="fill: rgb(219, 219, 219); transform-origin: 557.79px 228.15px;" id="el9lrjqdinp8g" class="animable"></path><polygon points="473.56 249.68 434.12 249.68 434.12 248.93 473.31 248.93 514.18 218.99 534.18 218.99 534.18 219.74 514.42 219.74 473.56 249.68" style="fill: rgb(219, 219, 219); transform-origin: 484.15px 234.335px;" id="elhrugmdejirr" class="animable"></polygon><path d="M536.79,222.4a3,3,0,1,1,3-3A3,3,0,0,1,536.79,222.4Zm0-5.32a2.29,2.29,0,1,0,2.29,2.28A2.28,2.28,0,0,0,536.79,217.08Z" style="fill: rgb(219, 219, 219); transform-origin: 536.79px 219.4px;" id="elrr9w9n96yto" class="animable"></path><rect x="434.12" y="266.51" width="89.9" height="0.75" style="fill: rgb(219, 219, 219); transform-origin: 479.07px 266.885px;" id="eluzhxmwds69i" class="animable"></rect><path d="M526.68,269.92a3,3,0,1,1,3-3A3,3,0,0,1,526.68,269.92Zm0-5.32a2.29,2.29,0,1,0,2.28,2.29A2.3,2.3,0,0,0,526.68,264.6Z" style="fill: rgb(219, 219, 219); transform-origin: 526.68px 266.92px;" id="ela1fhdwp7s7" class="animable"></path><polygon points="583.03 296.5 504.2 296.5 504.12 296.46 465.86 276.18 434.12 276.18 434.12 275.43 466.05 275.43 504.39 295.75 583.03 295.75 583.03 296.5" style="fill: rgb(219, 219, 219); transform-origin: 508.575px 285.965px;" id="ellqyron7ym1" class="animable"></polygon><path d="M585.69,299.17a3,3,0,1,1,3-3A3,3,0,0,1,585.69,299.17Zm0-5.33a2.29,2.29,0,1,0,2.29,2.29A2.29,2.29,0,0,0,585.69,293.84Z" style="fill: rgb(219, 219, 219); transform-origin: 585.69px 296.17px;" id="elf83h3umgn2" class="animable"></path><polygon points="549.51 309.01 504.15 309.01 504.06 308.96 461.76 285.05 434.12 285.05 434.12 284.3 461.96 284.3 462.04 284.35 504.34 308.26 549.51 308.26 549.51 309.01" style="fill: rgb(219, 219, 219); transform-origin: 491.815px 296.655px;" id="elcx36yvevy6e" class="animable"></polygon><path d="M552.17,311.67a3,3,0,1,1,3-3A3,3,0,0,1,552.17,311.67Zm0-5.32a2.29,2.29,0,1,0,2.29,2.29A2.29,2.29,0,0,0,552.17,306.35Z" style="fill: rgb(219, 219, 219); transform-origin: 552.17px 308.67px;" id="elb1g0g8foqv5" class="animable"></path><polygon points="315.88 249.5 262.49 249.5 262.39 249.42 221.62 219.55 185.81 219.55 185.81 218.8 221.87 218.8 221.97 218.88 262.73 248.75 315.88 248.75 315.88 249.5" style="fill: rgb(219, 219, 219); transform-origin: 250.845px 234.15px;" id="el3q9b9fpodde" class="animable"></polygon><path d="M183.19,222.21a3,3,0,1,1,3-3A3,3,0,0,1,183.19,222.21Zm0-5.32a2.29,2.29,0,1,0,2.29,2.29A2.29,2.29,0,0,0,183.19,216.89Z" style="fill: rgb(219, 219, 219); transform-origin: 183.19px 219.21px;" id="elwlrb21h94g" class="animable"></path><polygon points="315.88 240.62 267.43 240.62 267.33 240.55 226.56 210.68 206.81 210.68 206.81 209.93 226.81 209.93 226.91 210 267.67 239.87 315.88 239.87 315.88 240.62" style="fill: rgb(219, 219, 219); transform-origin: 261.345px 225.275px;" id="ellzpcxkww2uo" class="animable"></polygon><path d="M204.19,213.34a3,3,0,1,1,3-3A3,3,0,0,1,204.19,213.34Zm0-5.32a2.29,2.29,0,1,0,2.29,2.28A2.28,2.28,0,0,0,204.19,208Z" style="fill: rgb(219, 219, 219); transform-origin: 204.19px 210.34px;" id="elkxpfatv0qk9" class="animable"></path><rect x="166.97" y="257.68" width="148.91" height="0.75" style="fill: rgb(219, 219, 219); transform-origin: 241.425px 258.055px;" id="ellj1w8aczl5" class="animable"></rect><path d="M164.31,261.09a3,3,0,1,1,3-3A3,3,0,0,1,164.31,261.09Zm0-5.32a2.29,2.29,0,1,0,2.28,2.28A2.29,2.29,0,0,0,164.31,255.77Z" style="fill: rgb(219, 219, 219); transform-origin: 164.31px 258.09px;" id="eli16c89xymg" class="animable"></path><polygon points="236.78 287.57 217.96 287.57 217.96 286.82 236.6 286.82 274.94 266.49 315.88 266.49 315.88 267.24 275.12 267.24 236.78 287.57" style="fill: rgb(219, 219, 219); transform-origin: 266.92px 277.03px;" id="elnf8al43hfus" class="animable"></polygon><path d="M215.29,290.23a3,3,0,1,1,3-3A3,3,0,0,1,215.29,290.23Zm0-5.32a2.29,2.29,0,1,0,2.29,2.29A2.29,2.29,0,0,0,215.29,284.91Z" style="fill: rgb(219, 219, 219); transform-origin: 215.29px 287.23px;" id="eljbbezj4yos" class="animable"></path><polygon points="236.84 300.08 191.47 300.08 191.47 299.33 236.64 299.33 279.03 275.37 315.88 275.37 315.88 276.12 279.23 276.12 236.84 300.08" style="fill: rgb(219, 219, 219); transform-origin: 253.675px 287.725px;" id="elfzzq7uj7gi" class="animable"></polygon><path d="M188.81,302.74a3,3,0,1,1,3-3A3,3,0,0,1,188.81,302.74Zm0-5.32a2.29,2.29,0,1,0,2.29,2.29A2.29,2.29,0,0,0,188.81,297.42Z" style="fill: rgb(219, 219, 219); transform-origin: 188.81px 299.74px;" id="el25ans2c1ejf" class="animable"></path><polygon points="384.28 198.93 383.53 198.93 383.53 178.54 383.61 178.44 401.19 154.45 401.19 147.62 401.94 147.62 401.94 154.69 401.86 154.79 384.28 178.78 384.28 198.93" style="fill: rgb(219, 219, 219); transform-origin: 392.735px 173.275px;" id="elaeitw729wjt" class="animable"></polygon><path d="M401.56,147.89a3,3,0,1,1,3-3A3,3,0,0,1,401.56,147.89Zm0-5.32a2.29,2.29,0,1,0,2.29,2.28A2.28,2.28,0,0,0,401.56,142.57Z" style="fill: rgb(219, 219, 219); transform-origin: 401.56px 144.89px;" id="eliw45ht14lzc" class="animable"></path><polygon points="393.16 198.93 392.41 198.93 392.41 183.48 392.48 183.38 413.72 154.39 413.72 140.74 414.47 140.74 414.47 154.64 414.4 154.74 393.16 183.72 393.16 198.93" style="fill: rgb(219, 219, 219); transform-origin: 403.44px 169.835px;" id="elqzluigz9gbp" class="animable"></polygon><path d="M414.09,141.11a3,3,0,1,1,3-3A3,3,0,0,1,414.09,141.11Zm0-5.32a2.29,2.29,0,1,0,2.29,2.29A2.29,2.29,0,0,0,414.09,135.79Z" style="fill: rgb(219, 219, 219); transform-origin: 414.09px 138.11px;" id="elbiamva4z51m" class="animable"></path><rect x="374.66" y="158.15" width="0.75" height="40.78" style="fill: rgb(219, 219, 219); transform-origin: 375.035px 178.54px;" id="el99ujqeahjxn" class="animable"></rect><path d="M375,158.53a3,3,0,1,1,3-3A3,3,0,0,1,375,158.53Zm0-5.32a2.29,2.29,0,1,0,2.28,2.28A2.29,2.29,0,0,0,375,153.21Z" style="fill: rgb(219, 219, 219); transform-origin: 375px 155.53px;" id="elpra1k6g51s" class="animable"></path><polygon points="366.54 198.93 365.79 198.93 365.79 191.18 352.18 165.52 352.18 141.3 352.93 141.3 352.93 165.33 366.54 190.99 366.54 198.93" style="fill: rgb(219, 219, 219); transform-origin: 359.36px 170.115px;" id="elvdlo7cjmwyi" class="animable"></polygon><path d="M352.56,141.41a3,3,0,1,1,3-3A3,3,0,0,1,352.56,141.41Zm0-5.32a2.29,2.29,0,1,0,2.28,2.29A2.3,2.3,0,0,0,352.56,136.09Z" style="fill: rgb(219, 219, 219); transform-origin: 352.56px 138.41px;" id="elaqfbvlx9fp" class="animable"></path><polygon points="357.66 198.93 356.91 198.93 356.91 195.28 337.37 160.71 337.37 153.86 338.12 153.86 338.12 160.52 357.66 195.08 357.66 198.93" style="fill: rgb(219, 219, 219); transform-origin: 347.515px 176.395px;" id="elr5vcugntdt" class="animable"></polygon><path d="M337.75,154.06a3,3,0,1,1,3-3A3,3,0,0,1,337.75,154.06Zm0-5.32A2.29,2.29,0,1,0,340,151,2.3,2.3,0,0,0,337.75,148.74Z" style="fill: rgb(219, 219, 219); transform-origin: 337.75px 151.06px;" id="elwgr836edot" class="animable"></path><path d="M467.74,358.52H282.26v-16H467.74Zm-184.48-1H466.74v-14H283.26Z" style="fill: rgb(219, 219, 219); transform-origin: 375px 350.52px;" id="elzmr6erhr1wr" class="animable"></path><rect x="287.1" y="346.49" width="107.33" height="8.05" style="fill: rgb(39, 255, 79); transform-origin: 340.765px 350.515px;" id="elroky3u31ukf" class="animable"></rect><g id="elrpzzsvh6lhh"><polygon points="298.69 354.55 293.2 354.55 287.1 346.49 292.6 346.49 298.69 354.55" style="fill: rgb(255, 255, 255); opacity: 0.2; transform-origin: 292.895px 350.52px;" class="animable"></polygon></g><g id="el04h6qucyhi6e"><polygon points="310.28 354.55 304.79 354.55 298.69 346.49 304.19 346.49 310.28 354.55" style="fill: rgb(255, 255, 255); opacity: 0.2; transform-origin: 304.485px 350.52px;" class="animable"></polygon></g><g id="ela679ebuntrf"><polygon points="321.87 354.55 316.38 354.55 310.28 346.49 315.78 346.49 321.87 354.55" style="fill: rgb(255, 255, 255); opacity: 0.2; transform-origin: 316.075px 350.52px;" class="animable"></polygon></g><g id="elbaeovljdxe"><polygon points="333.46 354.55 327.97 354.55 321.87 346.49 327.37 346.49 333.46 354.55" style="fill: rgb(255, 255, 255); opacity: 0.2; transform-origin: 327.665px 350.52px;" class="animable"></polygon></g><g id="elpxtyc113hgc"><polygon points="345.05 354.55 339.56 354.55 333.46 346.49 338.96 346.49 345.05 354.55" style="fill: rgb(255, 255, 255); opacity: 0.2; transform-origin: 339.255px 350.52px;" class="animable"></polygon></g><g id="eluh85a92f8s9"><polygon points="356.64 354.55 351.15 354.55 345.05 346.49 350.55 346.49 356.64 354.55" style="fill: rgb(255, 255, 255); opacity: 0.2; transform-origin: 350.845px 350.52px;" class="animable"></polygon></g><g id="elyap1pdga6u"><polygon points="368.23 354.55 362.74 354.55 356.64 346.49 362.14 346.49 368.23 354.55" style="fill: rgb(255, 255, 255); opacity: 0.2; transform-origin: 362.435px 350.52px;" class="animable"></polygon></g><g id="elw2ohl9q6xv"><polygon points="379.82 354.55 374.33 354.55 368.23 346.49 373.73 346.49 379.82 354.55" style="fill: rgb(255, 255, 255); opacity: 0.2; transform-origin: 374.025px 350.52px;" class="animable"></polygon></g><g id="elei5a4hr917g"><polygon points="391.41 354.55 385.92 354.55 379.82 346.49 385.32 346.49 391.41 354.55" style="fill: rgb(255, 255, 255); opacity: 0.2; transform-origin: 385.615px 350.52px;" class="animable"></polygon></g><g id="elvj0t66whi1r"><polygon points="394.44 346.49 394.44 350.49 391.41 346.49 394.44 346.49" style="fill: rgb(255, 255, 255); opacity: 0.2; transform-origin: 392.925px 348.49px;" class="animable"></polygon></g><path d="M358.16,337a2.6,2.6,0,0,1-2.6-2.6V331.2a.49.49,0,0,1,.5-.49.49.49,0,0,1,.5.49v3.21a1.61,1.61,0,0,0,3.21,0V331.2a.5.5,0,0,1,1,0v3.21A2.6,2.6,0,0,1,358.16,337Z" style="fill: rgb(199, 199, 199); transform-origin: 358.165px 333.85px;" id="el5ls6vlhb01d" class="animable"></path><path d="M365,334.56h-1.11v1.95a.5.5,0,0,1-1,0V331.2a.49.49,0,0,1,.5-.49H365a1.93,1.93,0,1,1,0,3.85Zm-1.11-1H365a.93.93,0,1,0,0-1.86h-1.11Z" style="fill: rgb(199, 199, 199); transform-origin: 364.979px 333.858px;" id="el7aq4mh8lydd" class="animable"></path><path d="M368.13,336.51V331.2a.48.48,0,0,1,.49-.49h1.06a3.15,3.15,0,1,1,0,6.3h-1.06A.49.49,0,0,1,368.13,336.51Zm1-.5h.55a2.16,2.16,0,0,0,0-4.31h-.55Z" style="fill: rgb(199, 199, 199); transform-origin: 370.484px 333.86px;" id="elgt0i1kyi2rp" class="animable"></path><path d="M377.23,335.52H375l-.44,1.17a.51.51,0,0,1-.47.32.47.47,0,0,1-.17,0,.52.52,0,0,1-.3-.65l2-5.3a.52.52,0,0,1,.48-.32.51.51,0,0,1,.48.32l2,5.3a.52.52,0,0,1-.3.65.47.47,0,0,1-.17,0,.48.48,0,0,1-.46-.32Zm-.37-1-.73-1.93-.73,1.93Z" style="fill: rgb(199, 199, 199); transform-origin: 376.1px 333.879px;" id="elm7z3be4zm1k" class="animable"></path><path d="M382.78,331.7h-1.43v4.81a.5.5,0,1,1-1,0V331.7h-1.42a.5.5,0,0,1-.5-.5.49.49,0,0,1,.5-.49h3.84a.49.49,0,0,1,.5.49A.51.51,0,0,1,382.78,331.7Z" style="fill: rgb(199, 199, 199); transform-origin: 380.85px 333.86px;" id="el1da80jddmgn" class="animable"></path><path d="M384.76,336.51V331.2a.48.48,0,0,1,.49-.49h2.95a.49.49,0,0,1,.49.49.5.5,0,0,1-.49.5h-2.44v1.65h2.1a.51.51,0,0,1,.49.5.49.49,0,0,1-.49.5h-2.1V336h2.44a.5.5,0,0,1,.49.5.51.51,0,0,1-.49.5h-2.95A.5.5,0,0,1,384.76,336.51Z" style="fill: rgb(199, 199, 199); transform-origin: 386.725px 333.855px;" id="eliejg2jdnvf" class="animable"></path><path d="M390.56,335.73a.67.67,0,1,1,0,1.34.67.67,0,0,1,0-1.34Z" style="fill: rgb(199, 199, 199); transform-origin: 390.56px 336.4px;" id="elfbcgp6bc2cd" class="animable"></path><path d="M392.63,335.73a.67.67,0,1,1,0,1.34.67.67,0,0,1,0-1.34Z" style="fill: rgb(199, 199, 199); transform-origin: 392.63px 336.4px;" id="elksopvhrchbk" class="animable"></path><path d="M394.7,335.73a.67.67,0,1,1,0,1.34.67.67,0,0,1,0-1.34Z" style="fill: rgb(199, 199, 199); transform-origin: 394.7px 336.4px;" id="elzu0jnilss78" class="animable"></path></g><g id="freepik--Plant--inject-62" class="animable" style="transform-origin: 102.577px 355.084px;"><path d="M134.66,324.51c-13,17.54-26.46,37.9-29.75,59.9,0,.34.49.45.57.12a129,129,0,0,1,5.73-17.62c8.51-2.34,16.87-4.27,21.34-12.72,4.56-8.69,4-20,3.12-29.48C135.61,324.2,134.92,324.17,134.66,324.51Z" style="fill: rgb(39, 255, 79); transform-origin: 120.591px 354.507px;" id="el45e626v974x" class="animable"></path><path d="M111.33,366.75c5.82-13.06,13.29-26.17,22.79-36.91.06-.07.16,0,.1.1-6.21,7.65-10.94,16-15.55,24.45,4.29-4.35,9-8.25,13-12.87.08-.09.21,0,.13.13-4,4.84-8.44,10.1-13.69,13.69q-2.11,3.9-4.28,7.81c.36-.2.72-.37,1.08-.55a.06.06,0,0,1,.06.1c-.4.2-.8.41-1.21.59-.68,1.23-1.36,2.47-2.06,3.7C111.59,367.26,111.21,367,111.33,366.75Z" style="fill: rgb(38, 50, 56); transform-origin: 122.773px 348.458px;" id="elkrbmgypamc" class="animable"></path><path d="M115.66,362.19a76.89,76.89,0,0,0,10-6.64c.08-.07.2.05.12.12a52.19,52.19,0,0,1-9.92,6.76C115.64,362.52,115.5,362.28,115.66,362.19Z" style="fill: rgb(38, 50, 56); transform-origin: 120.699px 358.989px;" id="el3uwdy7mehh3" class="animable"></path><path d="M103.41,381.14c0,.27.48.27.47,0,.07-7.24,0-14.52.12-21.8,1.85-3.74,5.84-5.82,8.61-8.82a38.78,38.78,0,0,0,5.16-7.19,51.76,51.76,0,0,0,6-20c.76-7.75-2.18-33.32-5.44-32.43-1.7.46-7.18,13.12-8.63,17.31a120.18,120.18,0,0,0-5.16,21.23C101.89,346.48,102.11,364,103.41,381.14Z" style="fill: rgb(39, 255, 79); transform-origin: 113.182px 336.11px;" id="elyacks2inuph" class="animable"></path><path d="M103.36,349.89l0,0c.4-9.17,2.46-18.42,4.39-27.31,2.09-9.58,4.52-18.6,9.45-27.14a.14.14,0,0,1,.24.14,100.57,100.57,0,0,0-7.58,20.83c.33-.52.73-1,1.07-1.49.14-.19.45,0,.32.18a13,13,0,0,1-1.54,2.18l-.06,0c-1.7,6.84-2.92,13.85-4,20.83l.23-.27c0-.06.14,0,.11.08-.13.24-.28.47-.42.7-.52,3.54-1,7.08-1.5,10.59,6.31-5.4,11.71-11.76,14.75-19.59,0,0,.07,0,.06,0-3,8.13-7.68,15.36-14.91,20.29-.13.94-.26,1.89-.4,2.83,0,.2-.34.14-.34-.05,0-.83,0-1.67.08-2.51A.19.19,0,0,1,103.36,349.89Z" style="fill: rgb(38, 50, 56); transform-origin: 111.055px 324.124px;" id="el1zqc15mw9co" class="animable"></path><path d="M106.33,336.61c4.82-7.2,9.33-14.2,12.86-22.15,0-.09.19,0,.16.06-3,7.91-7.14,15.92-12.78,22.27C106.46,336.92,106.23,336.75,106.33,336.61Z" style="fill: rgb(38, 50, 56); transform-origin: 112.829px 325.629px;" id="ely6h78hwry4k" class="animable"></path><path d="M112.74,312.68c2-3.54,4.11-7,6-10.59,0-.1.19,0,.15.09a55.28,55.28,0,0,1-5.83,10.68C112.92,313,112.63,312.88,112.74,312.68Z" style="fill: rgb(38, 50, 56); transform-origin: 115.806px 307.484px;" id="elonsfrsrzea" class="animable"></path><path d="M112,314.22a0,0,0,1,1,0,.06A0,0,0,0,1,112,314.22Z" style="fill: rgb(38, 50, 56); transform-origin: 112px 314.25px;" id="elmqfxxtozkf" class="animable"></path><path d="M98.5,360.19a73.68,73.68,0,0,1-1.69,14.28c.08.51.15,1,.23,1.56a68.24,68.24,0,0,0,2.55-15.91.48.48,0,0,0,0-.49v0A105.47,105.47,0,0,0,98,338.05C95.77,324.74,90.87,312,81.58,302a.67.67,0,0,0-1,.21c-3.74,9.53-2.44,20.9.76,30.4A55.3,55.3,0,0,0,88.67,347C91.86,351.51,95.92,355.3,98.5,360.19Z" style="fill: rgb(39, 255, 79); transform-origin: 88.9793px 338.945px;" id="el4xhwhlex8u" class="animable"></path><path d="M82.68,306.44c8.8,14.28,14.92,31.22,15.67,48.09,0,.3-.49.38-.53.07-.21-1.52-.44-3-.68-4.51h0c-3.64-3.49-7.38-7.17-10-11.52,0-.08.06-.17.12-.1A121.24,121.24,0,0,0,97,349q-.94-5.59-2.26-11c-.24-.27-.47-.55-.7-.82s.1-.44.26-.26l.22.23a126.34,126.34,0,0,0-4.61-14.61c-2.24-2.67-4.74-5-6.37-8.2a.07.07,0,1,1,.11-.07c1.32,1.85,2.59,3.7,4.07,5.41.6.68,1.25,1.31,1.86,2a112.71,112.71,0,0,0-7.2-15A.2.2,0,0,1,82.68,306.44Z" style="fill: rgb(38, 50, 56); transform-origin: 90.3574px 330.6px;" id="ellla8ee0io4e" class="animable"></path><path d="M84.46,324.06c2.84,3.83,6.08,7.48,8.73,11.44.07.11-.09.23-.19.14-3.39-3.19-6.27-7.54-8.73-11.47C84.19,324.05,84.37,324,84.46,324.06Z" style="fill: rgb(38, 50, 56); transform-origin: 88.7286px 329.853px;" id="elaozucnrk0sk" class="animable"></path><path d="M93.59,336.38l.12.12c.08.09,0,.22-.13.13l-.12-.12C93.37,336.43,93.5,336.3,93.59,336.38Z" style="fill: rgb(38, 50, 56); transform-origin: 93.5858px 336.508px;" id="elns2ju97o8go" class="animable"></path><path d="M68.89,333.9a43.8,43.8,0,0,0,9.29,21.78,23.09,23.09,0,0,0,7.53,5.88c3.26,1.61,6.67,3.47,10.05,4.8A66,66,0,0,1,99.32,379c.11-.37.21-.75.32-1.12-2.16-18.61-14.2-34.51-29.6-44.72A.75.75,0,0,0,68.89,333.9Z" style="fill: rgb(39, 255, 79); transform-origin: 84.2609px 356.02px;" id="elf8wontjsdi" class="animable"></path><path d="M74.21,339.39c-.11-.09,0-.29.16-.2A63,63,0,0,1,94,363.37c.11.26-.24.48-.38.23-.72-1.26-1.45-2.48-2.19-3.68h0c-3.52-.66-6.85-3.13-9.45-5.48-.08-.06,0-.17.1-.1a21.21,21.21,0,0,0,4.45,3.12A47.54,47.54,0,0,0,91,359.23c-1.3-2.07-2.66-4.05-4.07-6a41.17,41.17,0,0,1-10.57-5.94c-.1-.07,0-.24.1-.17a107.85,107.85,0,0,0,9.82,5.25,88.14,88.14,0,0,0-6.93-8.09c-1.2-.63-2.41-1.26-3.57-1.93-.09-.06,0-.22.08-.19a13.07,13.07,0,0,1,2.73,1.35C77.17,342.13,75.74,340.75,74.21,339.39Z" style="fill: rgb(38, 50, 56); transform-origin: 84.0933px 351.439px;" id="elfcggvh1yv8i" class="animable"></path><path d="M74.54,345.82a4,4,0,0,1,.59.42c.06.05,0,.12-.07.1a4.71,4.71,0,0,1-.62-.35C74.33,345.92,74.43,345.75,74.54,345.82Z" style="fill: rgb(38, 50, 56); transform-origin: 74.7734px 346.073px;" id="el26v4w29twpy" class="animable"></path><polygon points="123.67 419.29 81.48 419.29 84.88 380.86 85.63 372.38 119.52 372.38 120.27 380.86 123.67 419.29" style="fill: rgb(69, 90, 100); transform-origin: 102.575px 395.835px;" id="el02vrafcmg94" class="animable"></polygon><polygon points="120.27 380.86 84.88 380.86 85.63 372.38 119.52 372.38 120.27 380.86" style="fill: rgb(38, 50, 56); transform-origin: 102.575px 376.62px;" id="el7rn6ensu3c" class="animable"></polygon><rect x="83.61" y="366.46" width="37.93" height="8.39" style="fill: rgb(69, 90, 100); transform-origin: 102.575px 370.655px;" id="elk0w33bqn42r" class="animable"></rect></g><g id="freepik--Character--inject-62" class="animable" style="transform-origin: 576.735px 335.554px;"><path d="M675.29,436.55c-.72-2.66-43.7-66.07-46.79-67.41-.35-.17-21.75,13.44-21.75,13.44-.91,1.09-39.7-9.25-39.7-9.25l-2.87,47.3,71.53,2.21s9.36,6.18,17.94,11.27h0c5.28,3.15,10,5.81,11.32,6.24C668.53,441.46,676,439.18,675.29,436.55Z" style="fill: rgb(255, 196, 192); transform-origin: 619.759px 404.888px;" id="el7lvw23zvctc" class="animable"></path><path d="M665,440.35c-1.36-.42-6-3.09-11.32-6.24h0c-8.58-5.08-17.94-11.27-17.94-11.27l-15.92-.49L597,380.88c5.41,1.25,9.46,2,9.75,1.69,0,0,21.4-13.6,21.75-13.42,3.09,1.33,46.06,64.74,46.79,67.39S668.53,441.46,665,440.35Z" style="fill: rgb(255, 255, 255); transform-origin: 636.17px 404.893px;" id="elbw10n9gryr6" class="animable"></path><path d="M675.71,436.65c-.77-2.72-44-66.11-47.13-67.48-1.2-.53-11.62,5.18-21.83,13.41l27.89,40.83s26.86,16.08,30.5,17.21S676.48,439.37,675.71,436.65Z" style="fill: rgb(39, 255, 79); transform-origin: 641.257px 405.022px;" id="elwn0q2gsrfx" class="animable"></path><path d="M672.55,437.47c-7.5-10.45-36.76-53.3-43.38-64.19,0-.09,0-.13.07,0,7.66,10.19,36.57,53.28,43.49,64.12C672.87,437.58,672.71,437.69,672.55,437.47Z" style="fill: rgb(38, 50, 56); transform-origin: 650.977px 405.395px;" id="el26ho2lhth5t" class="animable"></path><path d="M660.08,438.1a10.29,10.29,0,0,1-1.73-8.12,10,10,0,0,1,4-6.24c.07,0,.15.07.09.13A11.93,11.93,0,0,0,660.21,438,.08.08,0,0,1,660.08,438.1Z" style="fill: rgb(38, 50, 56); transform-origin: 660.298px 430.936px;" id="elx961xzejjh" class="animable"></path><path d="M638,426c-3-4.22-4.81-10.17-3.13-15.18.06-.2.34-.1.36.07a70.66,70.66,0,0,0,3.35,14.82A.33.33,0,0,1,638,426Z" style="fill: rgb(38, 50, 56); transform-origin: 636.41px 418.42px;" id="elxeu8mx1yqw" class="animable"></path><path d="M641.49,428.43c-3-4.22-4.82-10.17-3.14-15.18.07-.2.34-.1.36.07a71.15,71.15,0,0,0,3.35,14.82A.32.32,0,0,1,641.49,428.43Z" style="fill: rgb(38, 50, 56); transform-origin: 639.899px 420.866px;" id="elck09zcd3sxo" class="animable"></path><path d="M645,430.84c-3-4.21-4.82-10.17-3.14-15.18.06-.19.34-.1.36.07a71,71,0,0,0,3.35,14.82A.32.32,0,0,1,645,430.84Z" style="fill: rgb(38, 50, 56); transform-origin: 643.409px 423.278px;" id="elixcfzc4pqbf" class="animable"></path><path d="M648.52,433.25c-2.95-4.21-4.81-10.17-3.13-15.18.06-.19.33-.1.36.07A71.22,71.22,0,0,0,649.09,433,.32.32,0,0,1,648.52,433.25Z" style="fill: rgb(38, 50, 56); transform-origin: 646.925px 425.67px;" id="elsp2bob68nn" class="animable"></path><path d="M620.92,382.86c-3.23-4.78,4.19-9.82,7.43-5S624.17,387.65,620.92,382.86Z" style="fill: rgb(38, 50, 56); transform-origin: 624.637px 380.357px;" id="el1ckn94og8s9" class="animable"></path><path d="M635.76,433.76c1.4-4.32.88-9.08.91-13.54a.64.64,0,0,0-.87-.53.14.14,0,0,0-.21-.05,27.07,27.07,0,0,0-8.24,11.28c-1,2.59-.85,6.49,2.4,7.42C632.83,439.23,634.94,436.27,635.76,433.76Zm-3.39,2.59c-4.92,2.73-4.21-3.86-3.43-5.74a29.1,29.1,0,0,1,1.81-3.51c1.38-2.36,3.07-4.49,4.67-6.69-.15,2.19-.11,4.37-.18,6.56C635.16,429.58,635.08,434.85,632.37,436.35Z" style="fill: rgb(38, 50, 56); transform-origin: 631.773px 429.057px;" id="elmbdizkxop9" class="animable"></path><path d="M622.59,406.39c-2.55,2.22-1,5.8,1,7.75a27,27,0,0,0,12.24,6.72.14.14,0,0,0,.18-.13.63.63,0,0,0,.55-.85c-1.91-4-3.46-8.56-6.55-11.88C628.17,406.07,625,404.28,622.59,406.39Zm9.78,8c1,2,1.88,3.95,2.94,5.87a81.38,81.38,0,0,1-7.06-4.09,27.9,27.9,0,0,1-3.12-2.41c-1.5-1.37-4.94-7.05.67-6.66C628.89,407.3,631.19,412,632.37,414.37Z" style="fill: rgb(38, 50, 56); transform-origin: 628.929px 413.153px;" id="eltromj6lzxaj" class="animable"></path><path d="M578.84,363.13S518.39,336.36,491.59,337c-31.9.78-56.21,39-16.76,65.77,34.88,23.69,143.83,20.55,143.83,20.55l-26-45.41s-30.24-11.29-69.68-12l55.15,10.48Z" style="fill: rgb(55, 71, 79); transform-origin: 536.521px 380.223px;" id="el8egyhjrq4" class="animable"></path><path d="M577.85,372.26c-4.73-1.14-9.54-1.88-14.33-2.68s-9.69-1.52-14.55-2.19a291.63,291.63,0,0,0-29.22-2.58c-.91,0-1.83,0-2.75-.06a5.76,5.76,0,0,0-.59-.18c-.46-.14-.92-.28-1.39-.39-.87-.22-1.75-.39-2.63-.58-1.84-.37-3.68-.67-5.5-1.11-.11,0-.16.14-.05.17,1.83.51,3.61,1.14,5.44,1.64l1.59.42c-3.59,0-7.18.09-10.77.23-.12,0-.13.18,0,.18,4.87,0,9.77.19,14.64.52s9.66.7,14.47,1.23c9.74,1.07,19.46,2.45,29.13,4,5.43.86,10.87,1.82,16.34,2.34C578.2,373.25,578.38,372.39,577.85,372.26Z" style="fill: rgb(38, 50, 56); transform-origin: 540.588px 367.855px;" id="elfesx2qmxyg" class="animable"></path><path d="M607.55,421.41c-1.6-2.89-2.93-6-4.38-8.92l-4.36-8.92c-2.91-5.93-13.43-25.91-14.49-27.32-.07-.09-.22,0-.19.1.46,1.53,7,14.73,8.49,17.68,3,5.89,6.2,11.69,9.33,17.51.9,1.67,1.83,3.31,2.74,5s1.88,3.29,2.71,5C607.45,421.59,607.61,421.51,607.55,421.41Z" style="fill: rgb(38, 50, 56); transform-origin: 595.845px 398.884px;" id="elgs71zvj5k1a" class="animable"></path><path d="M465.84,439.06c.75-2.65,44.32-65.64,47.43-66.95.35-.17,21.62,13.64,21.62,13.64.9,1.1,39.79-8.87,39.79-8.87l2.42,47.32-71.55,1.53s-9.42,6.09-18.05,11.09c0,0,0,0,0,0-5.31,3.1-10,5.72-11.38,6.13C472.55,444,465.07,441.69,465.84,439.06Z" style="fill: rgb(255, 196, 192); transform-origin: 521.442px 407.659px;" id="el0ime8nemeew9" class="animable"></path><path d="M476.09,443c1.36-.41,6.07-3,11.37-6.13h0c8.63-5,18-11.1,18-11.1l15.93-.34,23.19-41.25c-5.43,1.2-9.48,2-9.77,1.6,0,0-21.26-13.81-21.62-13.63-3.11,1.31-46.68,64.3-47.43,66.94S472.55,444,476.09,443Z" style="fill: rgb(255, 255, 255); transform-origin: 505.144px 407.695px;" id="el7t0w18qim5c" class="animable"></path><path d="M465.42,439.15c.79-2.71,44.58-65.68,47.77-67,1.2-.52,11.57,5.29,21.7,13.62l-28.27,40.56s-27,15.82-30.67,16.92S464.62,441.87,465.42,439.15Z" style="fill: rgb(39, 255, 79); transform-origin: 500.126px 407.817px;" id="elmw7wpbbkifd" class="animable"></path><path d="M468.56,440c7.6-10.37,37.27-52.94,44-63.77.05-.09,0-.13-.07-.05-7.76,10.12-37.08,52.93-44.1,63.7C468.24,440.11,468.4,440.22,468.56,440Z" style="fill: rgb(38, 50, 56); transform-origin: 490.455px 408.128px;" id="eluehrb8yvd79" class="animable"></path><path d="M481,440.76a10.32,10.32,0,0,0,1.81-8.11,10,10,0,0,0-4-6.28c-.07,0-.15.07-.09.13a11.93,11.93,0,0,1,2.14,14.16C480.85,440.75,481,440.84,481,440.76Z" style="fill: rgb(38, 50, 56); transform-origin: 480.852px 433.581px;" id="el9mfmuavojwp" class="animable"></path><path d="M503.25,428.88c3-4.18,4.92-10.12,3.29-15.14-.07-.2-.34-.11-.37.06a70.64,70.64,0,0,1-3.49,14.8A.32.32,0,0,0,503.25,428.88Z" style="fill: rgb(38, 50, 56); transform-origin: 504.899px 421.325px;" id="el6x7bei6rwy3" class="animable"></path><path d="M499.72,431.26c3-4.18,4.91-10.12,3.28-15.15-.07-.19-.34-.1-.36.07a71.05,71.05,0,0,1-3.5,14.79A.33.33,0,0,0,499.72,431.26Z" style="fill: rgb(38, 50, 56); transform-origin: 501.362px 423.697px;" id="elsjo5bpklxu" class="animable"></path><path d="M496.18,433.64c3-4.19,4.91-10.12,3.28-15.15-.07-.19-.34-.1-.36.07a71.05,71.05,0,0,1-3.5,14.79A.33.33,0,0,0,496.18,433.64Z" style="fill: rgb(38, 50, 56); transform-origin: 497.822px 426.077px;" id="el9h77aar1m" class="animable"></path><path d="M492.64,436c3-4.19,4.91-10.12,3.28-15.15-.07-.2-.34-.1-.36.07a71.82,71.82,0,0,1-3.49,14.79A.32.32,0,0,0,492.64,436Z" style="fill: rgb(38, 50, 56); transform-origin: 494.279px 428.451px;" id="elz5dbpr1504o" class="animable"></path><path d="M520.71,385.89c3.29-4.75-4.09-9.86-7.38-5.1S517.43,390.65,520.71,385.89Z" style="fill: rgb(38, 50, 56); transform-origin: 517.02px 383.341px;" id="els7dti5vc2a" class="animable"></path><path d="M511.35,441.29c3.26-.91,3.4-4.81,2.48-7.4a27.12,27.12,0,0,0-8.13-11.36.15.15,0,0,0-.22.05.63.63,0,0,0-.87.52c0,4.46-.57,9.22.79,13.55C506.19,439.17,508.27,442.15,511.35,441.29ZM506,429.86c-.05-2.19,0-4.37-.12-6.56,1.58,2.22,3.25,4.36,4.61,6.74a29,29,0,0,1,1.77,3.52c.76,1.89,1.41,8.49-3.48,5.72C506.06,437.74,506,432.47,506,429.86Z" style="fill: rgb(38, 50, 56); transform-origin: 509.406px 431.971px;" id="elu94xsw8f9jc" class="animable"></path><path d="M511.43,411c-3.12,3.28-4.72,7.81-6.67,11.81a.63.63,0,0,0,.55.85c0,.09.06.16.17.14a26.93,26.93,0,0,0,12.3-6.61c2-1.92,3.57-5.49,1-7.74S513.25,409,511.43,411Zm4.18-.88c5.61-.34,2.12,5.3.61,6.66a29.31,29.31,0,0,1-3.15,2.39,81.26,81.26,0,0,1-7.1,4c1.08-1.9,2-3.89,3-5.83C510.17,415,512.51,410.26,515.61,410.07Z" style="fill: rgb(38, 50, 56); transform-origin: 512.42px 416.105px;" id="ela2n9yjmwxbs" class="animable"></path><path d="M576.22,362.27s60.26-19.4,92.66-16.16c31.75,3.17,45.5,42.64,15,64.76C650.63,435,523.5,429.21,523.5,429.21l26.19-49.06s43-11,82.48-11.35l-55.24,9.94Z" style="fill: rgb(55, 71, 79); transform-origin: 612.215px 387.782px;" id="elavmhf6ze3ho" class="animable"></path><path d="M547.94,383.32a1.84,1.84,0,0,0,0-.25l0-.2c0-.16.07-.32.1-.47a9.53,9.53,0,0,1,.29-.95c.11-.32.23-.62.36-.93a7.45,7.45,0,0,1,.49-.87s.05,0,.07,0l0,0,.07,0,.07,0c4.74-1.09,37-7.12,41.8-7.87s9.7-1.43,14.56-2.05a292,292,0,0,1,29.25-2.3c.91,0,1.83,0,2.75,0,.19-.07.39-.11.59-.17.46-.13.93-.27,1.39-.38.88-.21,1.76-.37,2.64-.55,1.84-.36,3.68-.63,5.51-1.06.11,0,.16.15.05.18-1.83.48-3.63,1.1-5.46,1.58l-1.59.41c3.59,0,7.18.16,10.77.33.11,0,.12.18,0,.18-4.88-.08-9.78.09-14.65.38s-9.66.6-14.48,1.09c-9.75,1-19.48,2.27-29.17,3.7-5.44.81-38.32,7.05-43.8,7.51h-.07a3,3,0,0,1-.13.39c-.14.3-.28.6-.43.9s-.29.57-.45.85c-.09.13-.17.27-.25.41a1.37,1.37,0,0,0-.13.2,1.28,1.28,0,0,0-.14.21C548.07,383.51,547.88,383.43,547.94,383.32Z" style="fill: rgb(38, 50, 56); transform-origin: 599.832px 374.43px;" id="elttnl5zrk79" class="animable"></path><path d="M533.56,425.87c1.63-2.87,3-5.92,4.47-8.87s3-5.93,4.45-8.89c3-5.9,13.67-25.78,14.75-27.18.06-.09.22,0,.18.1-.47,1.53-7.12,14.67-8.66,17.6-3.07,5.87-6.31,11.63-9.5,17.43-.91,1.65-1.86,3.29-2.78,4.94s-1.91,3.27-2.76,4.95A.09.09,0,1,1,533.56,425.87Z" style="fill: rgb(38, 50, 56); transform-origin: 545.474px 403.46px;" id="el8cunaf9tv6" class="animable"></path><path d="M581.45,289.53c-2.2,23.61-9.42,52.54-13.47,57.61-5.13,6.43-42.66,22-44.57,22.44-4.74,1.12-19-32.19-14-33.61,7.65-2.17,35.77-7.49,37.23-9.46s11.46-18.73,21.48-37.41C575.05,276.19,582.82,274.88,581.45,289.53Z" style="fill: rgb(255, 196, 192); transform-origin: 544.985px 324.293px;" id="elioswjer4f5j" class="animable"></path><path d="M527,367.2c-.54.36-8.12,5.54-12.95,7.67-3.61,1.58-14.11,5.88-16.25,2.08-1.47-2.58,4.41-5.84,8.52-8.23,2.16-1.26,4.66-4,3.79-5.41-1.52-2.42-7.07.95-10.65,3.72-6.92,5.36-15.85,14.54-20.94,11.35-1.92-1.21-.26-4.1,2.33-7.06-4.37,3.63-9.13,6.77-11.32,5.51-1.25-.71-1.47-1.9-1-3.34-1.41.68-2.73.76-3.76-.08-1.77-1.42-1.33-3.91,0-6.6a1.85,1.85,0,0,1-1.53-.73c-3.95-4.57,10.57-21.15,16.07-23.25,16.2-6.22,33.92-7.83,33.92-7.83C520.54,339.37,527,367.18,527,367.2Z" style="fill: rgb(255, 196, 192); transform-origin: 494.784px 357.019px;" id="elytysm4wrhv" class="animable"></path><path d="M500.36,355.08a28.76,28.76,0,0,0-10.58,5.79c-3.87,3.37-6.24,7-9.36,10.79-.08.1.07.23.15.13,1.49-1.79,7.73-8.63,9.36-10.21a27.26,27.26,0,0,1,10.46-6.43S500.41,355.07,500.36,355.08Z" style="fill: rgb(38, 50, 56); transform-origin: 490.396px 363.453px;" id="elhjo9cirgev" class="animable"></path><path d="M496.3,348.4a68.35,68.35,0,0,0-12.38,6.23c-4.16,2.88-7.16,7.05-10.12,11.08q-2.67,3.63-5.17,7.38c-.07.1.08.23.15.13q4.5-6.24,9.35-12.19A36.08,36.08,0,0,1,489,352c2.38-1.3,4.87-2.41,7.34-3.51C496.37,348.46,496.34,348.38,496.3,348.4Z" style="fill: rgb(38, 50, 56); transform-origin: 482.482px 360.826px;" id="el0da1bfsh1t8c" class="animable"></path><path d="M490.77,342.82c-4.15,1.45-7.78,2.7-11.26,5.49-4.6,3.7-8.75,9.45-10.2,11.49-1.61,2.25-3.14,4.55-4.63,6.88-.06.09.1.2.16.11a143.21,143.21,0,0,1,11.31-14.65,28.58,28.58,0,0,1,6.65-5.71,51.87,51.87,0,0,1,8-3.58S490.79,342.82,490.77,342.82Z" style="fill: rgb(38, 50, 56); transform-origin: 477.733px 354.822px;" id="el8gfiuilgxo" class="animable"></path><path d="M515.78,333.22l17,36.31S564,356,569,348.78s11.59-41.61,12.67-58-7-14.93-13-3.87-21.31,38-22.27,38.63S515.78,333.22,515.78,333.22Z" style="fill: rgb(39, 255, 79); transform-origin: 548.774px 324.031px;" id="elxmed1dnlije" class="animable"></path><path d="M533.67,352.28c-2-4.28-4.13-8.54-6-12.89-1.07-2.48-2.16-4.94-3.21-7.43,0-.09.12-.17.17-.08,2.22,4.21,4.44,8.44,6.47,12.75s4.08,8.56,6,12.88q1.67,3.67,3.12,7.45c0,.05-.06.09-.09.05C537.8,360.87,535.73,356.58,533.67,352.28Z" style="fill: rgb(38, 50, 56); transform-origin: 532.34px 348.433px;" id="ely42apzrpif" class="animable"></path><g id="el6c7htdzy1x"><path d="M548.45,362.14l1.37-.7c2.57-1.32,5.19-2.72,7.64-4.13l.93-.54c.49-.28,1-.57,1.45-.86.25-.14.48-.29.71-.43l.26-.16.73-.46c1-.61,1.88-1.21,2.72-1.81l.59-.42a23.15,23.15,0,0,0,3.64-3.16l.29-.35c.1-.12.18-.24.26-.34,5.07-7.18,11.59-41.61,12.67-58l0-.57v-.12c.06-1.24,0-2.77,0-4.42v0c-.61-8-4.55-8.8-8.73-4.69C564.68,307.39,552.42,350.86,548.45,362.14Z" style="opacity: 0.1; transform-origin: 565.093px 320.343px;" class="animable"></path></g><path d="M558.32,364.87l78.11-1.22c-.21-1.58-15.19-47-25.19-63.36-12.82-21-18.52-22.18-21.93-23.05-4.36-1.11-11.8.37-13.5,1.38-1.94,1.14-7.29,13-8.81,21.47C564,317.09,557.88,364,558.32,364.87Z" style="fill: rgb(39, 255, 79); transform-origin: 597.364px 320.858px;" id="elzfqd7atz4e" class="animable"></path><path d="M558.32,364.87l78.11-1.22c-.21-1.58-15.19-47-25.19-63.36-12.82-21-18.52-22.18-21.93-23.05-4.36-1.11-11.8.37-13.5,1.38-1.94,1.14-7.29,13-8.81,21.47C564,317.09,557.88,364,558.32,364.87Z" style="fill: rgb(39, 255, 79); transform-origin: 597.364px 320.858px;" id="elmew5psbn5fn" class="animable"></path><g id="el5gjwrbn4vjo"><path d="M635.41,360.25l-76.87,1.27c.05-.42.09-.87.15-1.36L635,358.9C635.13,359.38,635.28,359.83,635.41,360.25Zm-3.28-9.81-72.45,1.2c-.06.46-.11.92-.16,1.36l73.08-1.21C632.44,351.35,632.29,350.9,632.13,350.44Zm-3-8.45-68.4,1.13c0,.46-.11.91-.17,1.36l69-1.14ZM626,333.54l-64.15,1.06L561.7,336l64.84-1.07Zm-3.28-8.45-59.7,1c-.07.45-.13.91-.19,1.36l60.43-1Zm-3.48-8.45-55,.91c-.07.45-.13.91-.19,1.37l55.78-.92C619.66,317.54,619.46,317.09,619.27,316.64Zm-3.82-8.43-49.92.82c-.07.45-.14.9-.21,1.37l50.78-.84C615.89,309.1,615.67,308.65,615.45,308.21Zm-4.21-7.92-.32-.51-44,.73c-.08.43-.16.89-.24,1.36l45-.74C611.57,300.84,611.41,300.56,611.24,300.29Zm-5.84-8.92-36.2.6c-.16.45-.31.9-.45,1.36l37.59-.62C606,292.25,605.71,291.8,605.4,291.37ZM598.58,283l-25.87.43c-.22.44-.43.89-.66,1.37l27.78-.46C599.4,283.84,599,283.39,598.58,283Z" style="opacity: 0.1; transform-origin: 596.975px 322.26px;" class="animable"></path></g><path d="M600.05,282.12c15.74,9.12,59.26,48.64,52.77,60.22S591.88,357.5,575.53,355c-4.86-.74,3.25-32.13,8.06-34.26,4-1.78,28.2,1.5,28.45.09.27-1.59-6.2-10.77-16.91-27.68C582.77,273.67,593.1,278.09,600.05,282.12Z" style="fill: rgb(255, 196, 192); transform-origin: 613.753px 317.195px;" id="eljeadjmzxa4" class="animable"></path><path d="M559.89,318.62c-10.77,1.7-13.27,3.78-23.11.39-6.46-2.23-10.66.94-5.79,6.12,8,8.46,22.31,9.19,27.36,8Z" style="fill: rgb(255, 196, 192); transform-origin: 544.381px 325.931px;" id="eluigt5jfzr8" class="animable"></path><path d="M590.33,320.24s-13.56-2.92-25.2-2.25c-8.06.47-25.47,3.43-36.5,24.84-2.61,5.08-2.74,14.17,4.55,7.42,5.17-4.79,7-9.39,10.52-11.62,0,0,1.21,11.58,6.4,14a105.15,105.15,0,0,0,14,5.36,22,22,0,0,0,1.23-2.53s5.07,1.8,12.62-1.3Z" style="fill: rgb(255, 196, 192); transform-origin: 558.665px 337.94px;" id="el2cjhmlnu0f8" class="animable"></path><path d="M557.51,319.66c-3,3-9.32,9.34-12.66,16.35-3.7,7.79-8.74,23.79-3,26.46,4.23,2,6.69-4,6.69-4s-.69,7.05,3.53,8c3.84.86,5.47-3.85,5.47-3.85s.31,4.35,4.17,4.46c4.64.13,3.21-9,8-12.94C570.86,353.27,557.51,319.66,557.51,319.66Z" style="fill: rgb(255, 196, 192); transform-origin: 554.517px 343.371px;" id="elqpch4au5v4" class="animable"></path><path d="M553.73,338.55c-2.38,3.25-5.9,12-5.25,19.8,0,.18.15.26.17.1a84.71,84.71,0,0,1,5.16-19.86S553.76,338.52,553.73,338.55Z" style="fill: rgb(38, 50, 56); transform-origin: 551.106px 348.539px;" id="el7al95qyyhc6" class="animable"></path><path d="M561.49,342.52c-1.77,3-5,12.22-4.07,20.08,0,.17.17.25.18.08a90.94,90.94,0,0,1,4-20.13S561.51,342.48,561.49,342.52Z" style="fill: rgb(38, 50, 56); transform-origin: 559.428px 352.641px;" id="elwrf99zqpxo" class="animable"></path><path d="M543.68,338.56c-3.07,2-4.76,4.33-7,7.16a48.29,48.29,0,0,1-3.5,4.06c-1.15,1.16-2.83,2.89-4.64,2.17a2.88,2.88,0,0,1-1.45-2.56,14,14,0,0,1,.68-4.39c0-.05-.07-.09-.09,0a20,20,0,0,0-1,4,4.64,4.64,0,0,0,.5,2.72c1,1.71,3.31,1.29,4.71.31a16,16,0,0,0,2.26-2.09c.67-.72,1.31-1.46,1.93-2.23,1.27-1.56,2.46-3.2,3.71-4.78a45.59,45.59,0,0,1,4-4.26A.06.06,0,0,0,543.68,338.56Z" style="fill: rgb(38, 50, 56); transform-origin: 535.229px 345.711px;" id="elvkvf1ncet5" class="animable"></path><path d="M540.22,352.54a109.41,109.41,0,0,1,3.55-13.92c0-.06-.06-.1-.09-.05-1.87,3.28-4.08,11.17-4.42,13.58s-.64,5.4.06,7.73c1.07,3.52,3.6,3.48,4.52,3.39a4.78,4.78,0,0,0,2.84-1.4,9.55,9.55,0,0,0,1.94-3.37c0-.06-.06-.11-.09-.05-.8,1.76-2.41,3.74-4.39,4.07a3.32,3.32,0,0,1-2.53-.52,4.35,4.35,0,0,1-1.43-2.66A20.43,20.43,0,0,1,540.22,352.54Z" style="fill: rgb(38, 50, 56); transform-origin: 543.757px 350.921px;" id="elrlny87vjkwk" class="animable"></path><path d="M590.33,320.24l-5.89,39.18s68-5,70.13-17.76S618.82,293,603.85,283.79c-17.35-10.72-17.49-5.25-10.71,6.87,7.1,12.68,18.81,30.58,18.81,30.58Z" style="fill: rgb(39, 255, 79); transform-origin: 619.548px 318.738px;" id="elt7aywm2pdwn" class="animable"></path><path d="M634.07,324.48a77.77,77.77,0,0,0-10.94-2.63,74.77,74.77,0,0,0-11.08-1c-2.12-.05-4.23,0-6.35,0a.05.05,0,0,0,0,.1,99.08,99.08,0,0,1,11.15.86q5.5.69,11,1.58c2.06.34,4.12.77,6.17,1.18A.08.08,0,0,0,634.07,324.48Z" style="fill: rgb(38, 50, 56); transform-origin: 619.861px 322.699px;" id="el96jvmw1ra35" class="animable"></path><path d="M590.47,320.09c.35,0,19.5.46,20.15.55-.15-.24-6.08-8.55-7-9.76l-.26-.37c-.5-.51-1-1-1.48-1.54l-1.84-2a0,0,0,1,1,0,0c.64.65,1.29,1.3,1.92,2,.3.3.58.62.87.93q-.9-1.3-1.77-2.61c-.94-1.4-1.83-2.82-2.71-4.24a0,0,0,0,1,.07-.05c1.74,2.42,3.56,4.79,5.31,7.2s8.35,11.26,8.32,11.27-21.23-1-21.65-1A.13.13,0,0,1,590.47,320.09Z" style="fill: rgb(38, 50, 56); transform-origin: 601.146px 312.235px;" id="el055285ndyy2a" class="animable"></path><path d="M596.07,342.78c.63-4.36,1.23-8.73,2-13.07.45-2.47.89-4.94,1.36-7.4,0-.1.18-.08.17,0-.46,4.4-.93,8.82-1.6,13.21s-1.28,8.73-2,13.08c-.4,2.48-.88,4.93-1.44,7.38a0,0,0,0,1-.09,0C594.81,351.56,595.43,347.18,596.07,342.78Z" style="fill: rgb(38, 50, 56); transform-origin: 597.035px 339.111px;" id="elefsz8sbnwn5" class="animable"></path><path d="M583.78,360.21c.32-1.25.66-3,1-4.25.1-.32.33-.33.27,0-.19,1.1-.27,2.3-.45,3.43.94-.1,1.89-.21,2.84-.29l3.29-.29q3.22-.3,6.44-.66,6.52-.72,13-1.74A253.66,253.66,0,0,0,636,351.17c2.37-.63,4.73-1.3,7.07-2s4.93-1.59,6.82-2.43c.06,0,.11.07,0,.1a40.07,40.07,0,0,1-5.79,2.61q-3.14,1.13-6.34,2.06c-4.24,1.24-8.55,2.25-12.88,3.14q-12.89,2.64-26,4.21-3.66.44-7.32.79c-1.24.12-2.47.24-3.71.33S583.73,360.42,583.78,360.21Z" style="fill: rgb(38, 50, 56); transform-origin: 616.867px 353.508px;" id="elznb2kg5c36" class="animable"></path><path d="M577.7,294.41c4.56,0,10.37-8.43,12-14.49.11-.41-1.39-4.14-3-8.75-1-2.81-2-5.95-2.69-8.89-.15-.6-17.33,9-17.33,9a47.91,47.91,0,0,1,4.52,10.84,6.06,6.06,0,0,1,.17,1.23c0,.06,0,.13,0,.21C571.57,285.9,573.29,294.43,577.7,294.41Z" style="fill: rgb(255, 196, 192); transform-origin: 578.193px 278.332px;" id="eljuxj94olm8" class="animable"></path><path d="M582.88,262.63c.36,5.18.19,17.92-9.58,20.53a12.43,12.43,0,0,1-1.91.36.88.88,0,0,1,0-.21,7.83,7.83,0,0,0-.16-1.23,48.16,48.16,0,0,0-4.53-10.85S579.07,264.34,582.88,262.63Z" style="fill: rgb(38, 50, 56); transform-origin: 574.838px 273.075px;" id="el0ozj7r6mo159" class="animable"></path><path d="M576.28,237.93c4.81,5.12,10.21,24.1,7.83,30.1-3.44,8.69-13.35,14.24-21.81,9.13-8.2-5-14.8-29.82-11.75-35.71C555,232.78,569.18,230.37,576.28,237.93Z" style="fill: rgb(255, 196, 192); transform-origin: 567.241px 256.26px;" id="elakroj6s1zok" class="animable"></path><path d="M564.48,257c0-.05.11,0,.12.09.28,1.3.82,2.74,2.1,2.88,0,0,0,.07,0,.07C565.23,260.17,564.53,258.25,564.48,257Z" style="fill: rgb(38, 50, 56); transform-origin: 565.59px 258.513px;" id="elj5jrhmfbfa" class="animable"></path><path d="M565.29,255.34c2-.68,3.24,3.44,1.35,4.07S563.59,255.9,565.29,255.34Z" style="fill: rgb(38, 50, 56); transform-origin: 566.02px 257.37px;" id="elsj48kp0wpwj" class="animable"></path><path d="M557.34,259.09s-.08.09-.06.14c.41,1.26.67,2.78-.36,3.54,0,0,0,.09,0,.07C558.3,262.23,557.94,260.22,557.34,259.09Z" style="fill: rgb(38, 50, 56); transform-origin: 557.396px 260.966px;" id="els0cznk12f7" class="animable"></path><path d="M555.82,258.09c-2.1.44-1.06,4.6.88,4.19S557.57,257.72,555.82,258.09Z" style="fill: rgb(38, 50, 56); transform-origin: 556.199px 260.188px;" id="el5lbmpnepcb5" class="animable"></path><path d="M566.24,251.53c-.59.12-1.15.14-1.75.21a2.9,2.9,0,0,1-1.82-.12.91.91,0,0,1-.36-1.05,2.28,2.28,0,0,1,1.93-1.22,3.3,3.3,0,0,1,2.34.44A1,1,0,0,1,566.24,251.53Z" style="fill: rgb(38, 50, 56); transform-origin: 564.609px 250.564px;" id="elyqtxe74qlil" class="animable"></path><path d="M553.05,255.63a16.25,16.25,0,0,0,1.51-.9c.58-.36,1.08-.58,1.37-1.22a.89.89,0,0,0-.36-1,2.21,2.21,0,0,0-2.26.22,3.25,3.25,0,0,0-1.59,1.77A1,1,0,0,0,553.05,255.63Z" style="fill: rgb(38, 50, 56); transform-origin: 553.835px 253.995px;" id="elkv0n1cosiyf" class="animable"></path><path d="M570.06,268.21c-.22.39-.41.89-.86,1.06a3.42,3.42,0,0,1-1.46.08,0,0,0,0,0,0,.08,1.78,1.78,0,0,0,1.82.22,1.42,1.42,0,0,0,.68-1.42A.07.07,0,0,0,570.06,268.21Z" style="fill: rgb(38, 50, 56); transform-origin: 568.997px 268.967px;" id="elpxzy0u99mi" class="animable"></path><path d="M567.6,264.78a4.56,4.56,0,0,1-2.33,2.78,5.9,5.9,0,0,1-1.55.52,1.11,1.11,0,0,1-.3.05l-.3,0a.35.35,0,0,1-.34-.21h0a.59.59,0,0,1,0-.13h0l0-.11c-.31-1-.65-2.5-.65-2.5-.31.28-1.9,1.64-2,1.12a68.73,68.73,0,0,1-2.14-13.64c0-.15.22-.18.24,0,1.11,4.12,1.49,8.4,2.54,12.56a8,8,0,0,1,1.87-1.22c.15,0,.6,2.95.78,3.38a.06.06,0,0,0,0,0,6.29,6.29,0,0,0,4.09-2.7C567.52,264.6,567.65,264.65,567.6,264.78Z" style="fill: rgb(38, 50, 56); transform-origin: 562.801px 260.333px;" id="elkobzrfu26m" class="animable"></path><path d="M564.16,267.41a5.27,5.27,0,0,0,2.53,1,2.39,2.39,0,0,0,1.43-.32c.94-.56.7-1.51.28-2.25a5.69,5.69,0,0,0-.82-1.09A6.94,6.94,0,0,1,564.16,267.41Z" style="fill: rgb(38, 50, 56); transform-origin: 566.465px 266.585px;" id="el6jdc1usngrr" class="animable"></path><path d="M566.69,268.41a2.39,2.39,0,0,0,1.43-.32c.94-.56.7-1.51.28-2.25A2.49,2.49,0,0,0,566.69,268.41Z" style="fill: rgb(255, 152, 185); transform-origin: 567.726px 267.13px;" id="elncnc7ydhilg" class="animable"></path><path d="M575.82,250.55c-3-2.92-3.88-9.81-6.43-10.51-5.5-1.52-10,8.92-15.33,11.62-5.16,2.62-8.55.16-9.72-4.51s1-9.27,6.37-13c5.56-3.9,12.25-4.22,16.18-3.8,0,0-2.36-1.44-2.19-2.34s3.7-.14,4.91.33a8.74,8.74,0,0,1,2.51,1.86,9.41,9.41,0,0,1,2.24-1.43,5.56,5.56,0,0,1,3.76-.16c.24.27-1.52,1.45-2.81,2.17,0,0,4.1,2,5.44,4.87s3.64,18.29,2.67,19C582.16,255.42,577,251.74,575.82,250.55Z" style="fill: rgb(38, 50, 56); transform-origin: 563.842px 241.173px;" id="elhhla2y8lbfa" class="animable"></path><path d="M574.63,230.66c-.06,0-.09.09,0,.11a9.85,9.85,0,0,1,4.77,2.56,12.24,12.24,0,0,1,2.94,5.73c1,4.09.89,8.32,1,12.49a.11.11,0,0,0,.22,0c.14-4.43.16-9.17-1.09-13.46C581.4,234.44,578.7,231,574.63,230.66Z" style="fill: rgb(38, 50, 56); transform-origin: 579.099px 241.159px;" id="el36eil40ycgm" class="animable"></path><path d="M568.92,238.58a14.4,14.4,0,0,0-4.54,2.65,20.22,20.22,0,0,0-3,4c-2.14,3.06-4.75,5.91-8.25,7.4,0,0,0,.09,0,.07a17.55,17.55,0,0,0,8-6.35,42.26,42.26,0,0,1,3.07-4.29,17.94,17.94,0,0,1,4.9-3.2A.16.16,0,0,0,568.92,238.58Z" style="fill: rgb(38, 50, 56); transform-origin: 561.153px 245.628px;" id="elfqupsf9ky6j" class="animable"></path><path d="M563,230.44a27.37,27.37,0,0,0-7.73,1.12,21.6,21.6,0,0,0-6.81,3.12c-3.53,2.54-5.83,6.74-4.76,11.13a9.39,9.39,0,0,0,3.77,5.59.12.12,0,0,0,.14-.2,9.68,9.68,0,0,1-3.12-11.15c1.78-4.3,6.09-6.72,10.33-8.05a39.34,39.34,0,0,1,8.18-1.53A0,0,0,0,0,563,230.44Z" style="fill: rgb(38, 50, 56); transform-origin: 553.218px 240.931px;" id="eljc6sfd6xcxt" class="animable"></path><path d="M579.55,254s1.32-7.55,4.56-7.34,4.11,9.85,1.61,12.4a3.4,3.4,0,0,1-4.9.27Z" style="fill: rgb(255, 196, 192); transform-origin: 583.358px 253.45px;" id="el83n6ogdnubw" class="animable"></path><path d="M584.29,249.39a0,0,0,0,1,.05.07c-1.72,1.86-1.91,4.35-1.74,6.76a1.88,1.88,0,0,1,2.33-1.66.07.07,0,0,1,0,.14,2.11,2.11,0,0,0-1.77,1.64,9.74,9.74,0,0,0-.21,2.15c0,.24-.4.3-.43.05v-.06C581.18,255.8,581.51,251,584.29,249.39Z" style="fill: rgb(38, 50, 56); transform-origin: 583.379px 254.046px;" id="elkyaelehwud" class="animable"></path><path d="M570,287.68a17,17,0,0,0,1.19,4.33,12.14,12.14,0,0,0,2.31,3.75,6.07,6.07,0,0,0,3.69,2,6.6,6.6,0,0,0,4-1.16,22.46,22.46,0,0,0,6.3-6.18,32.5,32.5,0,0,0,4.2-7.92,26.51,26.51,0,0,1-1.5,4.28,29.15,29.15,0,0,1-2.22,4,22.66,22.66,0,0,1-2.85,3.57,17.63,17.63,0,0,1-3.54,2.94,7.27,7.27,0,0,1-4.51,1.18,6.37,6.37,0,0,1-4-2.28A14.34,14.34,0,0,1,570,287.68Z" style="fill: rgb(38, 50, 56); transform-origin: 580.845px 290.494px;" id="elipj8k0gr5aj" class="animable"></path><g id="el79hhnbxf8ki"><rect x="489.95" y="375.24" width="80.39" height="3.6" style="fill: rgb(199, 199, 199); transform-origin: 530.145px 377.04px; transform: rotate(-1.09deg);" class="animable"></rect></g><polygon points="489.92 376.01 489.99 379.61 544.62 378.57 541.8 375.02 489.92 376.01" style="fill: rgb(166, 166, 166); transform-origin: 517.27px 377.315px;" id="elbdllr7yx4d" class="animable"></polygon><polygon points="538.4 378.69 460.07 380.18 452.54 327.11 530.87 325.61 538.4 378.69" style="fill: rgb(199, 199, 199); transform-origin: 495.47px 352.895px;" id="ell6guf5hjlc" class="animable"></polygon><path d="M500.24,352.81a4.67,4.67,0,0,1-4.6,4.85A4.87,4.87,0,0,1,490.7,353a4.67,4.67,0,0,1,4.59-4.86A4.87,4.87,0,0,1,500.24,352.81Z" style="fill: rgb(255, 255, 255); transform-origin: 495.47px 352.9px;" id="eli6idrt29ds" class="animable"></path></g><defs>     <filter id="active" height="200%">         <feMorphology in="SourceAlpha" result="DILATED" operator="dilate" radius="2"></feMorphology>                <feFlood flood-color="#32DFEC" flood-opacity="1" result="PINK"></feFlood>        <feComposite in="PINK" in2="DILATED" operator="in" result="OUTLINE"></feComposite>        <feMerge>            <feMergeNode in="OUTLINE"></feMergeNode>            <feMergeNode in="SourceGraphic"></feMergeNode>        </feMerge>    </filter>    <filter id="hover" height="200%">        <feMorphology in="SourceAlpha" result="DILATED" operator="dilate" radius="2"></feMorphology>                <feFlood flood-color="#ff0000" flood-opacity="0.5" result="PINK"></feFlood>        <feComposite in="PINK" in2="DILATED" operator="in" result="OUTLINE"></feComposite>        <feMerge>            <feMergeNode in="OUTLINE"></feMergeNode>            <feMergeNode in="SourceGraphic"></feMergeNode>        </feMerge>            <feColorMatrix type="matrix" values="0   0   0   0   0                0   1   0   0   0                0   0   0   0   0                0   0   0   1   0 "></feColorMatrix>    </filter></defs></svg>